<?xml version="1.0" encoding="utf-8"?>
<!-- Generator: Adobe Illustrator 15.1.0, SVG Export Plug-In . SVG Version: 6.00 Build 0)  -->
<!DOCTYPE svg PUBLIC "-//W3C//DTD SVG 1.1//EN" "http://www.w3.org/Graphics/SVG/1.1/DTD/svg11.dtd">
<svg version="1.1" id="Layer_1" xmlns="http://www.w3.org/2000/svg" xmlns:xlink="http://www.w3.org/1999/xlink" x="0px" y="0px"
	 width="1024px" height="1024px" viewBox="-12 -12 1024 1024" enable-background="new -12 -12 1024 1024" xml:space="preserve">
<pattern  x="190.5" y="800.5" width="36" height="3" patternUnits="userSpaceOnUse" id="New_Pattern_Swatch_4" viewBox="0 -3 36 3" overflow="visible">
	<g>
		<polygon fill="none" points="0,0 36,0 36,-3 0,-3 		"/>
		<g>
			<g>
				<polygon fill="none" points="0,0 36,0 36,-3 0,-3 				"/>
				<g>
					<polygon fill="none" points="0,-3 36,-3 36,0 0,0 					"/>
					
						<line opacity="0.1" fill="none" stroke="#FFFFFF" stroke-miterlimit="10" enable-background="new    " x1="0" y1="-0.5" x2="36" y2="-0.5"/>
					
						<line opacity="0.1" fill="none" stroke="#FFFFFF" stroke-miterlimit="10" enable-background="new    " x1="0" y1="-2.5" x2="36" y2="-2.5"/>
				</g>
			</g>
		</g>
	</g>
</pattern>
<g id="Layer_2">
</g>
<g id="Layer_3">
</g>
<g>
	<pattern  id="SVGID_1_" xlink:href="#New_Pattern_Swatch_4" patternTransform="matrix(1.0039 0 0 0.9996 -9.9331 -19.9824)">
	</pattern>
	<rect x="-12" y="-7.5" fill="url(#SVGID_1_)" width="1024" height="970.494"/>
	<line fill="none" stroke="#FFFFFF" stroke-width="10" stroke-miterlimit="10" x1="-12" y1="-7.5" x2="1011.999" y2="-7.5"/>
	<line fill="none" stroke="#FFFFFF" stroke-width="10" stroke-miterlimit="10" x1="-12" y1="968.558" x2="1011.999" y2="968.558"/>
	<polygon fill="#FFFFFF" points="704.369,968.336 675.779,1007.5 378.404,1007.5 351.808,969.77 	"/>
	<g id="Layer_4">
	</g>
</g>
</svg>
