<?xml version="1.0" encoding="utf-8"?>
<!-- Generator: Adobe Illustrator 15.1.0, SVG Export Plug-In . SVG Version: 6.00 Build 0)  -->
<!DOCTYPE svg PUBLIC "-//W3C//DTD SVG 1.1//EN" "http://www.w3.org/Graphics/SVG/1.1/DTD/svg11.dtd">
<svg version="1.1" id="Layer_1" xmlns="http://www.w3.org/2000/svg" xmlns:xlink="http://www.w3.org/1999/xlink" x="0px" y="0px"
	 width="1024px" height="1024px" viewBox="-336.156 -336.154 1024 1024" enable-background="new -336.156 -336.154 1024 1024"
	 xml:space="preserve">
<g>
	<g id="Layer_2">
	</g>
	<g id="Layer_1_1_">
		<path fill="#FFFFFF" fill-opacity="0.1" stroke="#FFFFFF" stroke-width="0.5" stroke-miterlimit="10" stroke-opacity="0.5" d="
			M175.842-334.154c-281.658,0-509.997,228.337-509.997,509.999c0,281.657,228.337,510.001,510.003,510.001
			c281.655,0,509.997-228.341,509.997-510.001C685.807-105.817,457.501-334.154,175.842-334.154z M175.842,524.656
			c-192.642,0-348.814-156.17-348.814-348.812c0-192.644,156.169-348.809,348.814-348.809
			c192.646,0,348.809,156.165,348.809,348.809C524.65,368.486,368.485,524.656,175.842,524.656z"/>
	</g>
	<g id="Layer_3">
	</g>
	<g id="Layer_4">
	</g>
	<g id="Layer_1_2_">
		<path fill="#FFFFFF" fill-opacity="0.1" stroke="#FFFFFF" stroke-width="0.5" stroke-miterlimit="10" stroke-opacity="0.5" d="
			M175.842-334.154c-281.658,0-509.997,228.337-509.997,509.999c0,281.657,228.337,510.001,510.003,510.001
			c281.655,0,509.997-228.341,509.997-510.001C685.807-105.817,457.501-334.154,175.842-334.154z M175.842,524.656
			c-192.642,0-348.814-156.17-348.814-348.812c0-192.644,156.169-348.809,348.814-348.809
			c192.646,0,348.809,156.165,348.809,348.809C524.65,368.486,368.485,524.656,175.842,524.656z"/>
	</g>
</g>
</svg>
