<?xml version="1.0" encoding="utf-8"?>
<!-- Generator: Adobe Illustrator 15.1.0, SVG Export Plug-In . SVG Version: 6.00 Build 0)  -->
<!DOCTYPE svg PUBLIC "-//W3C//DTD SVG 1.1//EN" "http://www.w3.org/Graphics/SVG/1.1/DTD/svg11.dtd">
<svg version="1.1" id="Layer_1" xmlns="http://www.w3.org/2000/svg" xmlns:xlink="http://www.w3.org/1999/xlink" x="0px" y="0px"
	 width="1024px" height="1024px" viewBox="-198.18 -198.18 1024 1024" enable-background="new -198.18 -198.18 1024 1024"
	 xml:space="preserve">
<g id="Layer_2">
</g>
<g id="Layer_1_1_">
</g>
<g id="Layer_4">
	<g>
		<path fill="#FFFFFF" d="M313.82,823.82c-136.22,0-264.296-53.045-360.617-149.382C-143.121,578.1-196.18,450.04-196.18,313.82
			c0-136.22,53.044-264.296,149.383-360.618C49.54-143.12,177.584-196.18,313.82-196.18c136.22,0,264.296,53.044,360.618,149.382
			C770.759,49.541,823.82,177.601,823.82,313.82c0,136.219-53.045,264.295-149.382,360.618
			C578.1,770.759,450.04,823.82,313.82,823.82z M313.82-192.93c-135.358,0-262.622,52.704-358.327,148.424
			c-95.705,95.705-148.424,222.968-148.424,358.327c0,135.359,52.719,262.606,148.424,358.327
			c95.721,95.705,222.969,148.424,358.327,148.424c135.359,0,262.607-52.703,358.327-148.424
			c95.721-95.721,148.425-222.968,148.425-358.327c0-135.36-52.72-262.622-148.425-358.327
			C576.427-140.227,449.179-192.93,313.82-192.93z"/>
	</g>
</g>
<g id="Layer_3">
</g>
</svg>
