<?xml version="1.0" encoding="utf-8"?>
<!-- Generator: Adobe Illustrator 17.0.0, SVG Export Plug-In . SVG Version: 6.00 Build 0)  -->
<!DOCTYPE svg PUBLIC "-//W3C//DTD SVG 1.1//EN" "http://www.w3.org/Graphics/SVG/1.1/DTD/svg11.dtd">
<svg version="1.1" xmlns="http://www.w3.org/2000/svg" xmlns:xlink="http://www.w3.org/1999/xlink" x="0px" y="0px"
	 width="566.39px" height="566.39px" viewBox="0 0 566.39 566.39" enable-background="new 0 0 566.39 566.39" xml:space="preserve">
<g id="Layer_2">
</g>
<g id="Layer_1">
</g>
<g id="Layer_3">
</g>
<g id="Layer_4">
	<g>
		<path fill="#00FFFF" d="M283.19,566.39c-75.64,0-146.76-29.46-200.25-82.95C29.46,429.96,0,358.84,0,283.19
			c0-75.64,29.46-146.76,82.95-200.25C136.43,29.46,207.55,0,283.19,0s146.76,29.46,200.25,82.95
			c53.49,53.49,82.95,124.61,82.95,200.25c0,75.64-29.46,146.76-82.95,200.25C429.96,536.93,358.84,566.39,283.19,566.39z
			 M283.19,20c-70.3,0-136.4,27.38-186.11,77.09S20,212.89,20,283.19s27.38,136.4,77.09,186.11s115.81,77.09,186.11,77.09
			s136.4-27.38,186.11-77.09s77.09-115.81,77.09-186.11S519.01,146.8,469.3,97.09S353.5,20,283.19,20z"/>
	</g>
</g>
</svg>
