<?xml version="1.0" encoding="utf-8"?>
<!-- Generator: Adobe Illustrator 17.0.0, SVG Export Plug-In . SVG Version: 6.00 Build 0)  -->
<!DOCTYPE svg PUBLIC "-//W3C//DTD SVG 1.1//EN" "http://www.w3.org/Graphics/SVG/1.1/DTD/svg11.dtd">
<svg version="1.1" xmlns="http://www.w3.org/2000/svg" xmlns:xlink="http://www.w3.org/1999/xlink" x="0px" y="0px"
	 width="597.87px" height="597.33px" viewBox="0 0 597.87 597.33" enable-background="new 0 0 597.87 597.33" xml:space="preserve">
<g id="Layer_2">
</g>
<g id="Layer_1">
</g>
<g id="Layer_3">
</g>
<g id="Layer_4">
	<g>
		<g>
			<path fill="#00FFFF" d="M298.93,597.33c-12.5,0-25.08-0.78-37.4-2.32l1.49-11.91c11.83,1.48,23.91,2.23,35.91,2.23
				c8.87,0,17.83-0.41,26.62-1.22l1.1,11.95C317.5,596.91,308.17,597.33,298.93,597.33z M371.17,588.54l-2.89-11.65
				c20.24-5.02,39.98-12.3,58.66-21.63l5.36,10.74C412.83,575.73,392.26,583.31,371.17,588.54z M217.29,586.04
				c-20.91-5.92-41.22-14.18-60.37-24.53l5.71-10.55c18.38,9.94,37.87,17.86,57.93,23.54L217.29,586.04z M471.03,542.86l-6.92-9.81
				c17.05-12.02,32.82-25.94,46.89-41.37l8.87,8.09C505.22,515.84,488.79,530.33,471.03,542.86z M118.94,537.09
				c-17.34-13.1-33.3-28.12-47.42-44.66l9.12-7.79c13.56,15.88,28.88,30.3,45.53,42.88L118.94,537.09z M547.7,464.21l-9.98-6.66
				c11.61-17.38,21.32-36.05,28.85-55.48l11.19,4.34C569.91,426.65,559.8,446.1,547.7,464.21z M44.87,456
				c-11.5-18.5-20.97-38.26-28.14-58.76l11.33-3.97c6.89,19.67,15.98,38.64,27.01,56.39L44.87,456z M590.83,363.15l-11.72-2.59
				c4.48-20.28,6.75-41.2,6.75-62.16l0-0.63l12-0.03l0,0.66C597.87,320.23,595.5,342.02,590.83,363.15z M5.09,353.62
				C1.71,335.53,0,316.95,0,298.4c0-3.23,0.05-6.5,0.15-9.72l11.99,0.38c-0.1,3.09-0.15,6.23-0.15,9.34
				c0,17.82,1.64,35.66,4.89,53.02L5.09,353.62z M582.54,254.56c-0.79-5.14-1.72-10.26-2.78-15.34
				c-3.22-15.36-7.71-30.45-13.4-45.04l11.18-4.36c7.9,20.24,13.57,41.42,16.87,62.93L582.54,254.56z M16.78,245.97l-11.8-2.18
				c3.95-21.4,10.27-42.39,18.79-62.4l11.04,4.7C26.63,205.3,20.57,225.44,16.78,245.97z M547.6,155.14
				c-10.42-18.05-22.86-35.02-36.96-50.43l8.85-8.1c14.69,16.05,27.65,33.73,38.51,52.53L547.6,155.14z M54.76,147.62l-10.2-6.31
				c11.43-18.47,24.92-35.74,40.1-51.34l8.6,8.37C78.69,113.3,65.74,129.88,54.76,147.62z M479.06,75.03
				c-16.27-13.13-33.98-24.49-52.64-33.76l5.34-10.75c19.45,9.66,37.9,21.49,54.84,35.17L479.06,75.03z M125.72,69.62l-7.25-9.56
				c17.35-13.15,36.14-24.42,55.87-33.47l5.01,10.91C160.42,46.19,142.38,56.99,125.72,69.62z M386.24,24.99
				c-19.84-6.33-40.45-10.49-61.28-12.36l1.07-11.95c21.7,1.95,43.19,6.28,63.86,12.88L386.24,24.99z M219.98,22.46l-3.29-11.54
				C237.53,4.97,259.14,1.29,280.9,0l0.71,11.98C260.72,13.22,239.99,16.75,219.98,22.46z"/>
		</g>
	</g>
</g>
</svg>
