<?xml version="1.0" encoding="utf-8"?>
<!-- Generator: Adobe Illustrator 15.1.0, SVG Export Plug-In . SVG Version: 6.00 Build 0)  -->
<!DOCTYPE svg PUBLIC "-//W3C//DTD SVG 1.1//EN" "http://www.w3.org/Graphics/SVG/1.1/DTD/svg11.dtd">
<svg version="1.1" id="Layer_1" xmlns="http://www.w3.org/2000/svg" xmlns:xlink="http://www.w3.org/1999/xlink" x="0px" y="0px"
	 width="1024px" height="1024px" viewBox="-325.33 -325.54 1024 1024" enable-background="new -325.33 -325.54 1024 1024"
	 xml:space="preserve">
<g id="Layer_2">
</g>
<g id="Layer_1_1_">
</g>
<g id="Layer_3">
</g>
<g id="Layer_4">
	<g>
		<g>
			<path fill="#FFFFFF" d="M151.988,698.46c-23.23-1.566-46.543-4.723-69.226-9.391l2.77-13.456
				c22.08,4.559,44.734,7.635,67.362,9.145L151.988,698.46z M221.846,698.433l-0.932-13.702c22.601-1.536,45.255-4.634,67.363-9.227
				l2.77,13.455C268.363,693.654,245.079,696.841,221.846,698.433z M15.428,670.261C-6.46,662.49-28.044,653.1-48.698,642.39
				l6.31-12.193c20.104,10.442,41.086,19.551,62.397,27.138L15.428,670.261z M358.324,670.095l-4.607-12.933
				c21.283-7.578,42.267-16.722,62.344-27.155l6.335,12.185C401.769,652.906,380.213,662.297,358.324,670.095z M-108.407,605.979
				c-18.952-13.399-37.192-28.255-54.196-44.153l9.354-10.05c16.538,15.458,34.284,29.931,52.743,42.974L-108.407,605.979z
				 M482.021,605.787l-7.931-11.204c18.436-13.069,36.178-27.512,52.72-43l9.354,10.023
				C519.187,577.505,500.973,592.36,482.021,605.787z M-210.327,510.778c-14.702-18.039-28.278-37.232-40.346-57.058l11.712-7.165
				c11.765,19.302,24.986,38.003,39.275,55.548L-210.327,510.778z M583.86,510.505l-10.644-8.678
				c14.292-17.566,27.513-36.27,39.25-55.604l11.71,7.146C612.11,473.216,598.56,492.437,583.86,510.505z M-282.899,391.692
				c-9.298-21.334-17.17-43.494-23.451-65.9l13.193-3.706c6.116,21.773,13.769,43.354,22.819,64.114L-282.899,391.692z
				 M656.404,391.253l-12.562-5.465c9.026-20.787,16.676-42.368,22.767-64.169l13.222,3.711
				C673.546,347.731,665.677,369.919,656.404,391.253z M-320.557,257.309c-3.155-22.956-4.746-46.431-4.773-69.771l13.714-0.029
				c0.026,22.736,1.591,45.583,4.635,67.904L-320.557,257.309z M693.953,256.815l-13.577-1.84c3.046-22.351,4.58-45.197,4.58-67.904
				v-1.019h13.714v0.989C698.644,210.382,697.079,233.858,693.953,256.815z M-307.091,119.632l-13.604-1.84
				c3.127-23.093,7.844-46.131,14.07-68.51l13.221,3.679C-299.466,74.736-304.074,97.143-307.091,119.632z M680.239,118.148
				c-3.099-22.461-7.762-44.867-13.903-66.615l13.196-3.734c6.281,22.352,11.081,45.39,14.29,68.455L680.239,118.148z
				 M-270.695-11.237l-12.589-5.463c9.243-21.336,20.049-42.233,32.144-62.14l11.711,7.139
				C-251.194-52.342-261.698-31.996-270.695-11.237z M643.462-12.582c-9.054-20.704-19.612-40.997-31.408-60.328l11.716-7.166
				c12.123,19.853,22.984,40.693,32.286,61.974L643.462-12.582z M-200.206-127.36l-10.642-8.649
				c14.646-18.04,30.663-35.257,47.641-51.155l9.38,10.022C-170.365-161.683-185.972-144.905-200.206-127.36z M572.697-128.403
				c-14.29-17.518-29.951-34.242-46.487-49.672l9.351-10.05c17.005,15.844,33.076,33.032,47.777,51.019L572.697-128.403z
				 M-101.193-220.198l-7.927-11.202c18.979-13.456,39.029-25.729,59.6-36.466l6.336,12.192
				C-63.207-245.239-82.708-233.295-101.193-220.198z M473.412-220.994c-18.514-13.07-38.072-24.959-58.149-35.338l6.311-12.193
				c20.629,10.682,40.733,22.901,59.734,36.329L473.412-220.994z M19.103-282.913l-4.608-12.933
				c21.86-7.826,44.487-14.196,67.252-18.919l2.797,13.428C62.411-296.697,40.386-290.519,19.103-282.913z M352.839-283.379
				c-21.337-7.551-43.392-13.703-65.553-18.233l2.743-13.455c22.799,4.667,45.447,10.983,67.368,18.754L352.839-283.379z
				 M151.906-310.618l-0.932-13.703c23.094-1.593,46.763-1.62,69.857-0.11l-0.905,13.729
				C197.435-312.184,174.397-312.156,151.906-310.618z"/>
		</g>
	</g>
</g>
</svg>
