<?xml version="1.0" encoding="utf-8"?>
<!-- Generator: Adobe Illustrator 17.0.0, SVG Export Plug-In . SVG Version: 6.00 Build 0)  -->
<!DOCTYPE svg PUBLIC "-//W3C//DTD SVG 1.1//EN" "http://www.w3.org/Graphics/SVG/1.1/DTD/svg11.dtd">
<svg version="1.1" xmlns="http://www.w3.org/2000/svg" xmlns:xlink="http://www.w3.org/1999/xlink" x="0px" y="0px"
	 width="520.38px" height="520.37px" viewBox="0 0 520.38 520.37" enable-background="new 0 0 520.38 520.37" xml:space="preserve">
<g id="Layer_2">
</g>
<g id="Layer_1">
</g>
<g id="Layer_3">
</g>
<g id="Layer_4">
	<g>
		<g>
			<path fill="#00FFFF" d="M260.19,520.37c-0.91,0-1.82,0-2.73-0.01l0.66-60c1.44,0.02,2.88,0.01,4.32,0l0.68,60
				C262.14,520.36,261.17,520.37,260.19,520.37z M251.85,520.23c-1.87-0.06-3.74-0.14-5.6-0.24l3.14-59.92
				c1.45,0.08,2.9,0.14,4.36,0.18L251.85,520.23z M268.72,520.23l-1.93-59.97c1.45-0.05,2.9-0.11,4.34-0.19l3.21,59.91
				C272.48,520.09,270.6,520.17,268.72,520.23z M240.61,519.64c-1.87-0.14-3.74-0.3-5.6-0.48l5.72-59.73
				c1.44,0.14,2.89,0.26,4.34,0.37L240.61,519.64z M279.96,519.62l-4.5-59.83c1.45-0.11,2.89-0.23,4.32-0.37l5.79,59.72
				C283.71,519.32,281.84,519.48,279.96,519.62z M229.4,518.56c-1.87-0.22-3.74-0.46-5.59-0.72l8.33-59.42
				c1.43,0.2,2.86,0.38,4.3,0.55L229.4,518.56z M291.19,518.54l-7.11-59.58c1.44-0.17,2.88-0.36,4.31-0.56l8.37,59.41
				C294.92,518.07,293.06,518.31,291.19,518.54z M218.24,517c-1.86-0.3-3.71-0.62-5.55-0.96l10.88-59.01
				c1.42,0.26,2.85,0.51,4.28,0.74L218.24,517z M302.33,516.96l-9.64-59.22c1.43-0.23,2.85-0.48,4.26-0.74L307.9,516
				C306.05,516.34,304.2,516.66,302.33,516.96z M207.15,514.95c-1.84-0.38-3.68-0.78-5.51-1.21l13.45-58.47
				c1.41,0.32,2.82,0.63,4.23,0.93L207.15,514.95z M313.44,514.91l-12.25-58.74c1.42-0.3,2.84-0.61,4.25-0.93l13.49,58.46
				C317.11,514.12,315.28,514.52,313.44,514.91z M196.16,512.42c-1.83-0.46-3.65-0.94-5.46-1.45l15.99-57.83
				c1.39,0.38,2.78,0.75,4.18,1.11L196.16,512.42z M324.43,512.37l-14.78-58.15c1.41-0.36,2.81-0.73,4.2-1.12l16.03,57.82
				C328.06,511.42,326.25,511.9,324.43,512.37z M185.28,509.41c-1.81-0.54-3.62-1.11-5.41-1.69l18.52-57.07
				c1.38,0.45,2.76,0.88,4.15,1.29L185.28,509.41z M335.3,509.35l-17.32-57.45c1.39-0.42,2.78-0.85,4.15-1.3l18.53,57.07
				C338.89,508.25,337.1,508.81,335.3,509.35z M174.5,505.92c-1.78-0.62-3.56-1.26-5.32-1.92l20.99-56.21
				c1.36,0.51,2.72,1,4.09,1.48L174.5,505.92z M346.02,505.87l-19.79-56.64c1.36-0.48,2.72-0.97,4.07-1.47l21.03,56.19
				C349.57,504.6,347.8,505.25,346.02,505.87z M163.9,501.96c-1.75-0.7-3.5-1.42-5.23-2.15l23.43-55.24
				c1.33,0.57,2.67,1.12,4.02,1.65L163.9,501.96z M356.58,501.92l-22.23-55.73c1.34-0.53,2.66-1.08,3.99-1.64l23.44,55.23
				C360.06,500.51,358.33,501.22,356.58,501.92z M153.49,497.54c-1.72-0.78-3.44-1.57-5.14-2.38l25.83-54.16
				c1.3,0.62,2.62,1.23,3.93,1.82L153.49,497.54z M366.93,497.53l-24.63-54.71c1.31-0.59,2.61-1.19,3.9-1.81l25.84,54.15
				C370.35,495.96,368.64,496.75,366.93,497.53z M377.08,492.69l-26.97-53.6c1.28-0.65,2.56-1.31,3.83-1.98l28.15,52.98
				C380.43,490.98,378.76,491.84,377.08,492.69z M143.28,492.68c-1.68-0.85-3.36-1.71-5.02-2.6l28.16-52.98
				c1.28,0.68,2.56,1.34,3.86,2L143.28,492.68z M387.02,487.41l-29.3-52.36c1.26-0.71,2.52-1.43,3.76-2.16l30.41,51.72
				C390.28,485.56,388.66,486.49,387.02,487.41z M133.31,487.38c-1.64-0.92-3.28-1.86-4.9-2.81l30.43-51.71
				c1.25,0.73,2.5,1.45,3.77,2.16L133.31,487.38z M396.71,481.71l-31.52-51.05c1.23-0.76,2.45-1.53,3.66-2.31l32.61,50.36
				C399.89,479.72,398.31,480.72,396.71,481.71z M123.57,481.65c-1.6-0.99-3.18-1.99-4.76-3.01l32.64-50.35
				c1.22,0.79,2.44,1.57,3.68,2.33L123.57,481.65z M406.15,475.59l-33.7-49.64c1.2-0.81,2.38-1.64,3.56-2.47l34.75,48.91
				C409.24,473.47,407.71,474.54,406.15,475.59z M114.11,475.51c-1.56-1.06-3.11-2.13-4.64-3.23l34.8-48.88
				c1.18,0.84,2.36,1.66,3.56,2.47L114.11,475.51z M415.32,469.07l-35.8-48.15c1.16-0.86,2.31-1.74,3.45-2.62l36.83,47.37
				C418.32,466.82,416.83,467.95,415.32,469.07z M104.91,468.97c-1.5-1.12-2.99-2.25-4.47-3.41l36.85-47.35
				c1.15,0.89,2.3,1.77,3.47,2.64L104.91,468.97z M424.21,462.16l-37.85-46.56c1.12-0.91,2.23-1.83,3.33-2.77l38.85,45.73
				C427.11,459.78,425.67,460.98,424.21,462.16z M96.02,462.05c-1.46-1.19-2.91-2.39-4.34-3.62l38.89-45.69
				c1.1,0.93,2.21,1.86,3.33,2.77L96.02,462.05z M432.79,454.88l-39.81-44.89c1.08-0.96,2.15-1.93,3.21-2.91l40.77,44.02
				C435.58,452.37,434.19,453.63,432.79,454.88z M87.44,454.74c-1.4-1.25-2.8-2.51-4.17-3.79l40.81-43.98
				c1.06,0.98,2.13,1.96,3.21,2.92L87.44,454.74z M441.05,447.23l-41.71-43.13c1.04-1,2.07-2.02,3.09-3.05l42.63,42.22
				C443.73,444.6,442.4,445.92,441.05,447.23z M79.18,447.08c-1.35-1.3-2.68-2.62-4-3.96l42.66-42.2c1.02,1.03,2.05,2.05,3.09,3.06
				L79.18,447.08z M448.98,439.22l-43.53-41.29c1-1.05,1.98-2.11,2.96-3.18l44.4,40.35C451.54,436.49,450.27,437.86,448.98,439.22z
				 M71.26,439.07c-1.29-1.36-2.56-2.74-3.83-4.13l44.43-40.32c0.97,1.07,1.96,2.13,2.95,3.18L71.26,439.07z M456.55,430.88
				l-45.27-39.38c0.95-1.09,1.89-2.19,2.81-3.31l46.11,38.39C459,428.04,457.79,429.47,456.55,430.88z M63.69,430.73
				c-1.23-1.42-2.45-2.85-3.65-4.29l46.14-38.35c0.92,1.11,1.86,2.21,2.81,3.3L63.69,430.73z M463.77,422.22l-46.92-37.39
				c0.9-1.13,1.79-2.28,2.67-3.43l47.72,36.38C466.09,419.27,464.94,420.75,463.77,422.22z M56.5,422.08
				c-1.17-1.47-2.32-2.94-3.45-4.43l47.73-36.36c0.88,1.15,1.77,2.29,2.67,3.43L56.5,422.08z M470.6,413.26l-48.49-35.34
				c0.85-1.17,1.69-2.35,2.52-3.53l49.25,34.27C472.8,410.2,471.71,411.74,470.6,413.26z M49.68,413.12
				c-1.1-1.52-2.19-3.04-3.26-4.58l49.27-34.24c0.83,1.19,1.66,2.37,2.51,3.53L49.68,413.12z M477.04,404l-49.97-33.21
				c0.8-1.21,1.59-2.42,2.36-3.64l50.68,32.12C479.11,400.85,478.08,402.43,477.04,404z M43.26,403.88
				c-1.03-1.56-2.05-3.13-3.06-4.71l50.69-32.1c0.77,1.22,1.56,2.44,2.36,3.64L43.26,403.88z M483.08,394.47l-51.36-31.01
				c0.75-1.24,1.48-2.49,2.2-3.74l52.03,29.88C485.01,391.23,484.06,392.85,483.08,394.47z M37.24,394.37
				c-0.97-1.6-1.91-3.21-2.85-4.84l52.03-29.88c0.72,1.26,1.46,2.5,2.2,3.74L37.24,394.37z M488.71,384.67l-52.67-28.74
				c0.69-1.27,1.37-2.55,2.04-3.83l53.28,27.59C490.5,381.35,489.61,383.02,488.71,384.67z M31.64,384.63
				c-0.9-1.65-1.78-3.3-2.64-4.97l53.29-27.58c0.66,1.28,1.34,2.55,2.03,3.81L31.64,384.63z M26.47,374.64
				c-0.83-1.68-1.64-3.38-2.43-5.09l54.44-25.22c0.6,1.3,1.22,2.6,1.86,3.89L26.47,374.64z M493.91,374.63l-53.87-26.42
				c0.64-1.3,1.26-2.61,1.87-3.92l54.43,25.25C495.55,371.25,494.74,372.94,493.91,374.63z M21.74,364.44
				c-0.75-1.71-1.48-3.44-2.2-5.17l55.47-22.86c0.55,1.33,1.11,2.66,1.69,3.97L21.74,364.44z M498.66,364.38l-54.97-24.05
				c0.58-1.33,1.15-2.66,1.7-4l55.48,22.84C500.16,360.92,499.42,362.65,498.66,364.38z M17.45,354.03
				c-0.68-1.75-1.34-3.52-1.98-5.29l56.42-20.41c0.49,1.36,1,2.71,1.52,4.05L17.45,354.03z M502.97,353.92L447,332.29
				c0.52-1.35,1.03-2.7,1.52-4.06l56.43,20.39C504.31,350.39,503.65,352.16,502.97,353.92z M13.61,343.42
				c-0.6-1.78-1.18-3.56-1.74-5.35l57.25-17.96c0.43,1.38,0.88,2.76,1.34,4.13L13.61,343.42z M506.82,343.27l-56.86-19.16
				c0.46-1.37,0.91-2.75,1.34-4.13l57.27,17.9C508,339.69,507.42,341.49,506.82,343.27z M10.23,332.65
				c-0.52-1.8-1.02-3.61-1.51-5.42l57.98-15.44c0.37,1.4,0.76,2.8,1.16,4.19L10.23,332.65z M510.19,332.47l-57.65-16.63
				c0.4-1.39,0.79-2.78,1.16-4.18l57.99,15.39C511.21,328.86,510.71,330.67,510.19,332.47z M7.34,321.75
				c-0.44-1.82-0.87-3.65-1.27-5.49l58.6-12.9c0.31,1.42,0.64,2.83,0.98,4.23L7.34,321.75z M513.08,321.58l-58.31-14.12
				c0.34-1.4,0.66-2.81,0.97-4.22l58.61,12.85C513.95,317.92,513.52,319.75,513.08,321.58z M4.91,310.73
				c-0.36-1.84-0.71-3.69-1.03-5.54l59.1-10.33c0.25,1.43,0.51,2.85,0.79,4.27L4.91,310.73z M515.5,310.56l-58.88-11.57
				c0.28-1.41,0.54-2.83,0.79-4.26l59.11,10.28C516.2,306.87,515.86,308.72,515.5,310.56z M2.97,299.62
				c-0.28-1.85-0.54-3.71-0.79-5.57l59.5-7.76c0.19,1.44,0.39,2.88,0.61,4.31L2.97,299.62z M517.43,299.44l-59.32-8.99
				c0.22-1.43,0.42-2.86,0.6-4.3l59.5,7.71C517.97,295.73,517.71,297.59,517.43,299.44z M1.52,288.44c-0.2-1.86-0.38-3.73-0.54-5.6
				l59.78-5.17c0.12,1.45,0.27,2.89,0.42,4.33L1.52,288.44z M518.87,288.27l-59.66-6.42c0.15-1.43,0.29-2.87,0.42-4.31l59.78,5.12
				C519.26,284.54,519.08,286.41,518.87,288.27z M0.55,277.23c-0.12-1.87-0.22-3.74-0.3-5.62l59.94-2.6
				c0.06,1.45,0.14,2.9,0.23,4.34L0.55,277.23z M519.84,277.06l-59.88-3.87c0.09-1.44,0.17-2.88,0.23-4.32l59.95,2.55
				C520.06,273.31,519.96,275.19,519.84,277.06z M0.06,266C0.02,264.12,0,262.25,0,260.37l60-0.04c0,1.45,0.02,2.9,0.05,4.34
				L0.06,266z M520.32,265.81l-59.99-1.29c0.03-1.44,0.05-2.89,0.05-4.34l0-0.36h60l0,0.36
				C520.38,262.06,520.36,263.94,520.32,265.81z M60.04,255.98l-59.99-1.23c0.04-1.88,0.1-3.76,0.18-5.63l59.95,2.53
				C60.12,253.08,60.07,254.53,60.04,255.98z M460.32,255.52c-0.03-1.45-0.08-2.9-0.15-4.34l59.94-2.64
				c0.08,1.86,0.15,3.73,0.19,5.6L460.32,255.52z M60.41,247.3l-59.88-3.8c0.12-1.87,0.26-3.74,0.42-5.61l59.79,5.07
				C60.61,244.4,60.5,245.85,60.41,247.3z M459.94,246.86c-0.1-1.45-0.21-2.9-0.33-4.34l59.77-5.21c0.16,1.86,0.3,3.73,0.43,5.6
				L459.94,246.86z M61.14,238.65l-59.66-6.37c0.2-1.87,0.42-3.74,0.66-5.6l59.51,7.66C61.46,235.77,61.3,237.21,61.14,238.65z
				 M459.19,238.2c-0.16-1.44-0.33-2.88-0.52-4.31l59.49-7.79c0.24,1.86,0.47,3.72,0.67,5.59L459.19,238.2z M62.25,230.04
				L2.92,221.1c0.28-1.87,0.58-3.72,0.9-5.57l59.12,10.24C62.69,227.19,62.46,228.61,62.25,230.04z M458.06,229.6
				c-0.22-1.43-0.45-2.86-0.7-4.28l59.1-10.37c0.32,1.85,0.63,3.7,0.91,5.57L458.06,229.6z M63.73,221.5L4.84,209.99
				c0.36-1.85,0.74-3.69,1.14-5.53l58.62,12.79C64.3,218.67,64,220.08,63.73,221.5z M456.56,221.07c-0.28-1.42-0.58-2.84-0.89-4.25
				l58.59-12.93c0.4,1.83,0.79,3.67,1.15,5.51L456.56,221.07z M65.58,213.03L7.25,198.97c0.44-1.83,0.9-3.66,1.38-5.48l58,15.35
				C66.27,210.23,65.91,211.63,65.58,213.03z M454.69,212.6c-0.34-1.4-0.7-2.8-1.07-4.19l57.97-15.48c0.48,1.82,0.95,3.64,1.4,5.47
				L454.69,212.6z M67.79,204.66l-57.66-16.6c0.52-1.81,1.06-3.62,1.62-5.42l57.28,17.88C68.6,201.9,68.19,203.27,67.79,204.66z
				 M452.47,204.24c-0.41-1.39-0.82-2.78-1.26-4.16l57.24-17.98c0.56,1.79,1.1,3.58,1.63,5.39L452.47,204.24z M70.37,196.38
				L13.5,177.27c0.6-1.79,1.22-3.58,1.86-5.35l56.44,20.36C71.31,193.64,70.83,195,70.37,196.38z M449.86,195.96
				c-0.46-1.37-0.94-2.73-1.43-4.09l45.94-16.67l10.46-3.8c0.64,1.77,1.26,3.54,1.87,5.33L449.86,195.96z M73.32,188.19
				l-55.99-21.57c0.68-1.76,1.38-3.52,2.1-5.27l55.5,22.81C74.38,185.5,73.84,186.84,73.32,188.19z M446.91,187.82
				c-0.52-1.35-1.06-2.69-1.61-4.02l55.45-22.91c0.72,1.74,1.42,3.49,2.1,5.24L446.91,187.82z M76.62,180.17l-54.98-24.01
				c0.76-1.73,1.53-3.45,2.32-5.16l54.44,25.22C77.79,177.52,77.2,178.84,76.62,180.17z M443.61,179.84
				c-0.58-1.32-1.18-2.64-1.78-3.95l54.41-25.29c0.79,1.69,1.56,3.4,2.31,5.11L443.61,179.84z M80.27,172.28l-53.89-26.38
				c0.83-1.69,1.68-3.38,2.54-5.05l53.3,27.55C81.56,169.68,80.91,170.97,80.27,172.28z M439.96,171.99
				c-0.64-1.29-1.29-2.58-1.95-3.86l53.26-27.62c0.86,1.66,1.71,3.33,2.53,5.02L439.96,171.99z M84.26,164.56l-52.68-28.71
				c0.9-1.66,1.82-3.3,2.76-4.93l52.04,29.86C85.66,162.03,84.95,163.29,84.26,164.56z M435.98,164.32
				c-0.69-1.27-1.4-2.52-2.11-3.77l52.01-29.91c0.93,1.62,1.85,3.26,2.75,4.91L435.98,164.32z M88.58,157.03l-51.39-30.97
				c0.97-1.61,1.96-3.21,2.97-4.8l50.71,32.08C90.09,154.55,89.33,155.79,88.58,157.03z M431.68,156.83
				c-0.75-1.24-1.51-2.46-2.28-3.68l50.67-32.14c1,1.58,1.99,3.18,2.96,4.78L431.68,156.83z M93.23,149.68l-50-33.16
				c1.04-1.57,2.1-3.12,3.17-4.67l49.27,34.23C94.84,147.28,94.03,148.47,93.23,149.68z M427.04,149.51c-0.8-1.2-1.61-2.4-2.44-3.58
				l49.23-34.29c1.07,1.54,2.13,3.09,3.17,4.65L427.04,149.51z M98.18,142.55l-48.52-35.3c1.11-1.52,2.23-3.03,3.37-4.53
				l47.74,36.34C99.9,140.22,99.03,141.38,98.18,142.55z M422.09,142.41c-0.85-1.17-1.71-2.33-2.59-3.47l47.71-36.39
				c1.14,1.49,2.26,2.99,3.36,4.51L422.09,142.41z M103.44,135.64L56.49,98.28c1.17-1.47,2.35-2.93,3.56-4.37l46.14,38.36
				C105.26,133.38,104.35,134.5,103.44,135.64z M416.83,135.5c-0.9-1.13-1.81-2.25-2.73-3.35l46.1-38.4c1.2,1.44,2.39,2.9,3.56,4.37
				L416.83,135.5z M108.99,128.97L63.7,89.61c1.23-1.42,2.48-2.82,3.74-4.21l44.44,40.31C110.9,126.79,109.94,127.87,108.99,128.97z
				 M411.27,128.84c-0.95-1.09-1.91-2.17-2.88-3.24l44.41-40.35c1.26,1.39,2.51,2.8,3.75,4.21L411.27,128.84z M114.83,122.53
				L71.27,81.27c1.29-1.36,2.6-2.71,3.92-4.05l42.66,42.19C116.83,120.44,115.82,121.48,114.83,122.53z M405.44,122.42
				c-1-1.05-2-2.09-3.02-3.12l42.63-42.22c1.32,1.33,2.63,2.68,3.92,4.04L405.44,122.42z M120.93,116.36L79.18,73.27
				c1.35-1.31,2.72-2.6,4.1-3.88l40.79,44C123.02,114.36,121.97,115.36,120.93,116.36z M399.34,116.26c-1.04-1.01-2.09-2-3.16-2.99
				l40.77-44.02c1.38,1.27,2.74,2.56,4.09,3.87L399.34,116.26z M127.3,110.46L87.44,65.61c1.41-1.25,2.82-2.48,4.26-3.7l38.87,45.71
				C129.46,108.55,128.37,109.5,127.3,110.46z M392.96,110.35c-1.08-0.96-2.17-1.91-3.27-2.84l38.83-45.74
				c1.43,1.22,2.85,2.45,4.26,3.7L392.96,110.35z M133.89,104.85L96.02,58.31c1.45-1.18,2.91-2.35,4.39-3.5l36.89,47.32
				C136.15,103.03,135.02,103.93,133.89,104.85z M386.35,104.74c-1.12-0.91-2.26-1.82-3.4-2.71l36.83-47.36
				c1.48,1.15,2.95,2.32,4.41,3.51L386.35,104.74z M140.73,99.52L104.9,51.39c1.5-1.12,3.02-2.22,4.55-3.31l34.79,48.88
				C143.06,97.8,141.89,98.65,140.73,99.52z M379.5,99.41c-1.16-0.86-2.33-1.72-3.52-2.55l34.75-48.92
				c1.53,1.09,3.05,2.19,4.56,3.31L379.5,99.41z M147.8,94.49l-33.74-49.62c1.55-1.05,3.11-2.09,4.68-3.11l32.67,50.33
				C150.2,92.88,148.99,93.68,147.8,94.49z M372.41,94.37c-1.19-0.81-2.4-1.61-3.61-2.39l32.59-50.38c1.58,1.02,3.16,2.07,4.72,3.12
				L372.41,94.37z M155.06,89.78L123.5,38.75c1.59-0.98,3.19-1.95,4.81-2.9l30.46,51.69C157.53,88.27,156.29,89.02,155.06,89.78z
				 M365.13,89.66c-1.24-0.76-2.48-1.51-3.73-2.25l30.39-51.74c1.62,0.95,3.23,1.92,4.83,2.9L365.13,89.66z M162.51,85.39
				L133.2,33.04c1.63-0.92,3.28-1.81,4.93-2.69l28.18,52.97C165.04,83.99,163.77,84.68,162.51,85.39z M357.62,85.25
				c-1.26-0.7-2.53-1.39-3.8-2.07l28.1-53.01c1.67,0.88,3.33,1.79,4.98,2.71L357.62,85.25z M170.15,81.32l-27.03-53.57
				c1.67-0.84,3.36-1.67,5.05-2.48l25.86,54.14C172.73,80.04,171.44,80.68,170.15,81.32z M349.95,81.19
				c-1.29-0.65-2.59-1.28-3.89-1.9l25.76-54.19c1.71,0.81,3.4,1.64,5.09,2.49L349.95,81.19z M177.95,77.6l-24.68-54.69
				c1.7-0.77,3.42-1.52,5.14-2.25l23.5,55.21C180.58,76.43,179.26,77.01,177.95,77.6z M342.11,77.46c-1.32-0.59-2.65-1.17-3.98-1.74
				l23.39-55.25c1.74,0.74,3.47,1.49,5.18,2.26L342.11,77.46z M185.88,74.22l-22.27-55.72c1.74-0.7,3.49-1.38,5.25-2.04l21.06,56.18
				C188.57,73.17,187.23,73.69,185.88,74.22z M334.11,74.07c-1.35-0.54-2.7-1.06-4.07-1.57L351,16.28c1.77,0.66,3.52,1.33,5.27,2.03
				L334.11,74.07z M194.01,71.18l-19.83-56.63c1.77-0.62,3.56-1.22,5.35-1.81l18.58,57.05C196.73,70.24,195.36,70.7,194.01,71.18z
				 M325.94,71.03c-1.36-0.47-2.73-0.93-4.1-1.38l18.45-57.09c1.81,0.58,3.6,1.19,5.39,1.81L325.94,71.03z M202.24,68.5
				l-17.33-57.44c1.79-0.54,3.59-1.06,5.39-1.56l16.12,57.79C205.02,67.67,203.62,68.08,202.24,68.5z M317.7,68.36
				c-1.38-0.41-2.76-0.81-4.15-1.19l15.95-57.84c1.82,0.5,3.63,1.02,5.43,1.56L317.7,68.36z M210.59,66.17L195.76,8.03
				c1.82-0.46,3.65-0.91,5.48-1.33l13.55,58.45C213.39,65.48,211.99,65.82,210.59,66.17z M309.35,66.06
				c-1.4-0.35-2.8-0.69-4.21-1.01l13.41-58.48c1.84,0.42,3.66,0.86,5.49,1.32L309.35,66.06z M219.02,64.22L206.77,5.48
				c1.84-0.38,3.68-0.75,5.53-1.09l10.98,58.99C221.85,63.65,220.43,63.93,219.02,64.22z M300.9,64.12
				c-1.41-0.29-2.82-0.57-4.24-0.83L307.5,4.28c1.86,0.34,3.7,0.7,5.55,1.08L300.9,64.12z M227.55,62.63l-9.71-59.21
				c1.85-0.3,3.71-0.59,5.58-0.85l8.41,59.41C230.4,62.18,228.97,62.4,227.55,62.63z M292.37,62.56c-1.42-0.23-2.84-0.44-4.26-0.64
				l8.27-59.43c1.87,0.26,3.74,0.54,5.6,0.84L292.37,62.56z M236.14,61.42L229,1.84c1.86-0.22,3.73-0.43,5.61-0.61l5.84,59.71
				C239.01,61.09,237.57,61.24,236.14,61.42z M283.79,61.36c-1.43-0.17-2.87-0.32-4.31-0.46l5.7-59.73c1.88,0.18,3.74,0.38,5.61,0.6
				L283.79,61.36z M244.77,60.57l-4.56-59.83c1.87-0.14,3.75-0.27,5.64-0.37l3.24,59.91C247.65,60.37,246.21,60.46,244.77,60.57z
				 M275.16,60.54c-1.44-0.11-2.89-0.2-4.33-0.27l3.13-59.92c1.88,0.1,3.75,0.22,5.62,0.35L275.16,60.54z M253.44,60.1l-1.98-59.97
				c1.87-0.06,3.74-0.1,5.62-0.13l0.7,60C256.33,60.02,254.89,60.05,253.44,60.1z M266.47,60.08c-1.44-0.04-2.88-0.07-4.33-0.09
				l0.56-60c1.88,0.02,3.76,0.06,5.64,0.11L266.47,60.08z"/>
		</g>
	</g>
</g>
</svg>
