<?xml version="1.0" encoding="utf-8"?>
<!-- Generator: Adobe Illustrator 15.1.0, SVG Export Plug-In . SVG Version: 6.00 Build 0)  -->
<!DOCTYPE svg PUBLIC "-//W3C//DTD SVG 1.1//EN" "http://www.w3.org/Graphics/SVG/1.1/DTD/svg11.dtd">
<svg version="1.1" id="Layer_1" xmlns="http://www.w3.org/2000/svg" xmlns:xlink="http://www.w3.org/1999/xlink" x="0px" y="0px"
	 width="1024px" height="1024px" viewBox="-213.064 -213.335 1024 1024" enable-background="new -213.064 -213.335 1024 1024"
	 xml:space="preserve">
<g id="Layer_2">
</g>
<g id="Layer_1_1_">
</g>
<g id="Layer_3">
</g>
<g id="Layer_4">
	<g>
		<g>
			<path fill="#FFFFFF" d="M298.935,808.665c-21.326,0-42.789-1.332-63.808-3.962l2.542-20.338
				c20.183,2.528,40.793,3.809,61.266,3.809c15.133,0,30.417-0.7,45.415-2.083l1.878,20.406
				C330.616,807.948,314.696,808.665,298.935,808.665z M422.18,793.655l-4.93-19.895c34.531-8.571,68.206-21.003,100.081-36.935
				l9.143,18.34C493.257,771.781,458.161,784.724,422.18,793.655z M159.65,789.386c-35.674-10.108-70.325-24.213-102.996-41.888
				l9.742-18.015c31.357,16.975,64.609,30.498,98.833,40.197L159.65,789.386z M592.553,715.652l-11.806-16.756
				c29.087-20.524,55.986-44.291,79.996-70.644l15.135,13.814C650.882,669.513,622.853,694.256,592.553,715.652z M-8.144,705.799
				c-29.583-22.369-56.812-48.018-80.902-76.262l15.56-13.302c23.134,27.116,49.271,51.746,77.677,73.222L-8.144,705.799z
				 M723.358,581.35l-17.027-11.373c19.807-29.678,36.374-61.559,49.225-94.735l19.087,7.411
				C761.249,517.213,743.999,550.424,723.358,581.35z M-134.512,567.33c-19.62-31.591-35.777-65.332-48.01-100.338l19.33-6.786
				c11.755,33.596,27.263,65.988,46.081,96.298L-134.512,567.33z M796.939,408.78l-19.993-4.43
				c7.641-34.623,11.517-70.347,11.517-106.144v-1.075l20.473-0.052v1.127C808.952,335.49,804.907,372.697,796.939,408.78z
				 M-202.381,392.506c-5.766-30.89-8.684-62.617-8.684-94.293c0-5.516,0.085-11.1,0.256-16.598l20.456,0.649
				c-0.171,5.276-0.256,10.638-0.256,15.949c0,30.429,2.798,60.892,8.342,90.537L-202.381,392.506z M782.798,223.352
				c-1.35-8.777-2.936-17.521-4.745-26.194c-5.491-26.229-13.152-51.997-22.854-76.91l19.073-7.446
				c13.476,34.562,23.152,70.729,28.78,107.459L782.798,223.352z M-182.437,208.684l-20.131-3.723
				c6.739-36.542,17.521-72.385,32.058-106.554l18.835,8.025C-165.632,139.235-175.971,173.626-182.437,208.684z M723.184,53.582
				c-17.777-30.823-38.995-59.8-63.056-86.114l15.104-13.832c25.058,27.408,47.169,57.598,65.701,89.701L723.184,53.582z
				 M-117.64,40.741l-17.402-10.775c19.501-31.54,42.516-61.03,68.414-87.668l14.672,14.292
				C-76.813-17.864-98.906,10.448-117.64,40.741z M606.25-83.213c-27.757-22.421-57.97-41.819-89.81-57.649l9.11-18.357
				c33.186,16.496,64.661,36.696,93.562,60.056L606.25-83.213z M3.424-92.452l-12.369-16.325c29.6-22.455,61.657-41.7,95.318-57.154
				l8.548,18.63C62.625-132.461,31.847-114.019,3.424-92.452z M447.893-168.662c-33.849-10.809-69.01-17.913-104.547-21.106
				l1.822-20.405c37.024,3.329,73.688,10.723,108.952,21.994L447.893-168.662z M164.239-172.982l-5.613-19.706
				c35.555-10.161,72.424-16.444,109.548-18.647l1.211,20.457C233.745-188.761,198.378-182.732,164.239-172.982z"/>
		</g>
	</g>
</g>
</svg>
