<?xml version="1.0" encoding="utf-8"?>
<!-- Generator: Adobe Illustrator 15.1.0, SVG Export Plug-In . SVG Version: 6.00 Build 0)  -->
<!DOCTYPE svg PUBLIC "-//W3C//DTD SVG 1.1//EN" "http://www.w3.org/Graphics/SVG/1.1/DTD/svg11.dtd">
<svg version="1.1" id="Layer_1" xmlns="http://www.w3.org/2000/svg" xmlns:xlink="http://www.w3.org/1999/xlink" x="0px" y="0px"
	 width="1024px" height="1024px" viewBox="-251.811 -251.814 1024 1024" enable-background="new -251.811 -251.814 1024 1024"
	 xml:space="preserve">
<g id="Layer_2">
</g>
<g id="Layer_1_1_">
</g>
<g id="Layer_3">
</g>
<g id="Layer_4">
	<g>
		<g>
			<path fill="#FFFFFF" d="M260.19,772.186c-1.791,0-3.581,0-5.372-0.02l1.299-118.067c2.833,0.039,5.667,0.02,8.499,0l1.34,118.067
				C264.028,772.166,262.118,772.186,260.19,772.186z M243.779,771.909c-3.68-0.123-7.36-0.283-11.02-0.473l6.179-117.91
				c2.853,0.157,5.707,0.276,8.58,0.354L243.779,771.909z M276.977,771.909l-3.801-118.016c2.855-0.097,5.707-0.21,8.54-0.369
				l6.318,117.889C284.375,771.63,280.674,771.788,276.977,771.909z M221.66,770.746c-3.679-0.276-7.359-0.592-11.02-0.941
				l11.256-117.537c2.834,0.282,5.688,0.521,8.54,0.73L221.66,770.746z M299.092,770.71l-8.855-117.733
				c2.855-0.219,5.688-0.453,8.501-0.73l11.392,117.519C306.471,770.118,302.793,770.433,299.092,770.71z M199.602,768.621
				c-3.68-0.435-7.359-0.907-11-1.419l16.392-116.926c2.813,0.396,5.627,0.75,8.461,1.084L199.602,768.621z M321.19,768.584
				l-13.987-117.241c2.83-0.334,5.665-0.711,8.479-1.103l16.471,116.901C328.531,767.658,324.872,768.129,321.19,768.584z
				 M177.642,765.552c-3.661-0.588-7.301-1.218-10.922-1.887l21.409-116.119c2.795,0.512,5.608,1.003,8.423,1.447L177.642,765.552z
				 M343.115,765.474l-18.973-116.534c2.814-0.454,5.609-0.945,8.384-1.457l21.548,116.1
				C350.431,764.251,346.793,764.883,343.115,765.474z M155.818,761.521c-3.621-0.75-7.241-1.537-10.842-2.383l26.466-115.064
				c2.775,0.631,5.55,1.248,8.324,1.84L155.818,761.521z M364.974,761.439l-24.105-115.589c2.794-0.588,5.589-1.198,8.363-1.829
				l26.546,115.039C372.195,759.887,368.595,760.669,364.974,761.439z M134.192,756.537c-3.601-0.903-7.183-1.845-10.744-2.852
				l31.465-113.798c2.735,0.746,5.471,1.477,8.226,2.184L134.192,756.537z M386.601,756.443l-29.083-114.428
				c2.775-0.701,5.533-1.434,8.264-2.206l31.542,113.778C393.745,754.569,390.183,755.517,386.601,756.443z M112.782,750.616
				c-3.561-1.061-7.123-2.183-10.645-3.324l36.443-112.297c2.715,0.879,5.431,1.734,8.167,2.541L112.782,750.616z M407.988,750.495
				L373.91,637.449c2.734-0.826,5.465-1.677,8.159-2.565l36.466,112.303C415.057,748.334,411.532,749.435,407.988,750.495z
				 M91.57,743.747c-3.502-1.219-7.005-2.479-10.468-3.778l41.304-110.607c2.676,1.003,5.353,1.968,8.048,2.909L91.57,743.747z
				 M429.085,743.652l-38.94-111.456c2.671-0.946,5.352-1.916,8.001-2.9l41.386,110.573
				C436.072,741.148,432.586,742.431,429.085,743.652z M70.711,735.956c-3.443-1.38-6.887-2.794-10.292-4.231l46.106-108.695
				c2.617,1.116,5.254,2.206,7.911,3.242L70.711,735.956z M449.867,735.876l-43.742-109.662c2.637-1.046,5.232-2.126,7.85-3.234
				l46.122,108.682C456.715,733.101,453.312,734.5,449.867,735.876z M50.227,727.261c-3.385-1.537-6.77-3.09-10.115-4.686L90.94,616
				c2.558,1.222,5.155,2.421,7.733,3.582L50.227,727.261z M470.231,727.241l-48.468-107.659c2.578-1.161,5.138-2.341,7.675-3.566
				l50.848,106.557C476.961,724.149,473.599,725.704,470.231,727.241z M490.207,717.718l-53.074-105.482
				c2.521-1.271,5.041-2.575,7.537-3.894l55.39,104.251C496.797,714.351,493.511,716.04,490.207,717.718z M30.135,717.692
				c-3.305-1.672-6.611-3.362-9.878-5.115L75.67,608.323c2.52,1.347,5.038,2.646,7.595,3.936L30.135,717.692z M509.765,707.325
				L452.11,604.293c2.479-1.398,4.962-2.813,7.398-4.251l59.841,101.781C516.179,703.684,512.994,705.515,509.765,707.325z
				 M10.517,707.266c-3.228-1.81-6.455-3.663-9.642-5.53l59.879-101.753c2.46,1.434,4.919,2.847,7.418,4.241L10.517,707.266z
				 M528.831,696.108l-62.023-100.457c2.417-1.495,4.819-3.01,7.202-4.551l64.163,99.101
				C535.088,692.192,531.979,694.16,528.831,696.108z M-8.65,695.991c-3.147-1.948-6.257-3.916-9.366-5.928l64.229-99.078
				c2.4,1.553,4.801,3.09,7.241,4.585L-8.65,695.991z M547.412,684.063l-66.317-97.679c2.362-1.599,4.686-3.233,7.009-4.863
				l68.379,96.241C553.492,679.894,550.477,682.002,547.412,684.063z M-27.266,683.906c-3.07-2.083-6.119-4.189-9.13-6.354
				l68.479-96.187c2.322,1.652,4.644,3.261,7.005,4.861L-27.266,683.906z M565.456,671.236l-70.45-94.75
				c2.283-1.69,4.549-3.424,6.791-5.153l72.467,93.212C571.359,666.809,568.428,669.034,565.456,671.236z M-45.369,671.038
				c-2.952-2.206-5.884-4.427-8.796-6.71l72.513-93.174c2.263,1.748,4.526,3.485,6.828,5.192L-45.369,671.038z M582.945,657.639
				l-74.48-91.625c2.203-1.781,4.386-3.602,6.554-5.45l76.447,89.984C588.654,652.958,585.82,655.317,582.945,657.639z
				 M-62.862,657.422c-2.873-2.337-5.727-4.704-8.54-7.126l76.527-89.903c2.165,1.829,4.349,3.653,6.553,5.45L-62.862,657.422z
				 M599.831,643.312l-78.337-88.335c2.125-1.888,4.224-3.803,6.316-5.727l80.227,86.621
				C605.323,638.376,602.587,640.853,599.831,643.312z M-79.746,643.038c-2.755-2.46-5.51-4.939-8.206-7.456l80.306-86.545
				c2.086,1.93,4.191,3.855,6.316,5.746L-79.746,643.038z M616.083,628.26l-82.075-84.878c2.045-1.968,4.074-3.974,6.08-5.999
				l83.886,83.077C621.361,623.081,618.744,625.68,616.083,628.26z M-96,627.964c-2.657-2.556-5.274-5.153-7.871-7.79l83.945-83.043
				c2.007,2.029,4.035,4.035,6.081,6.026L-96,627.964z M631.692,612.497l-85.66-81.252c1.968-2.064,3.894-4.146,5.826-6.258
				l87.361,79.4C636.728,607.126,634.228,609.823,631.692,612.497z M-111.585,612.203c-2.538-2.676-5.037-5.393-7.536-8.125
				l87.429-79.342c1.909,2.105,3.857,4.188,5.805,6.257L-111.585,612.203z M646.584,596.086l-89.079-77.491
				c1.871-2.145,3.72-4.309,5.53-6.511l90.733,75.54C651.407,590.499,649.026,593.311,646.584,596.086z M-126.481,595.792
				c-2.42-2.8-4.82-5.613-7.182-8.44l90.794-75.474c1.811,2.188,3.66,4.351,5.53,6.495L-126.481,595.792z M660.793,579.044
				l-92.329-73.576c1.771-2.222,3.521-4.485,5.254-6.749l93.91,71.59C665.358,573.237,663.097,576.152,660.793,579.044z
				 M-140.63,578.77c-2.302-2.891-4.565-5.784-6.789-8.717l93.923-71.548c1.732,2.264,3.483,4.505,5.255,6.749L-140.63,578.77z
				 M674.232,561.411l-95.413-69.541c1.672-2.303,3.321-4.624,4.958-6.945l96.914,67.439
				C678.561,555.395,676.416,558.423,674.232,561.411z M-154.05,561.14c-2.165-2.993-4.31-5.983-6.416-9.012l96.953-67.378
				c1.633,2.341,3.267,4.662,4.94,6.944L-154.05,561.14z M686.906,543.191l-98.328-65.348c1.571-2.383,3.128-4.763,4.637-7.164
				l99.733,63.197C690.98,536.99,688.955,540.1,686.906,543.191z M-166.684,542.955c-2.026-3.07-4.034-6.161-6.021-9.27
				l99.748-63.166c1.515,2.402,3.07,4.797,4.644,7.164L-166.684,542.955z M698.794,524.438l-101.069-61.021
				c1.477-2.44,2.914-4.899,4.332-7.359l102.383,58.795C702.589,518.063,700.717,521.248,698.794,524.438z M-178.529,524.244
				c-1.909-3.157-3.759-6.318-5.608-9.524l102.384-58.799c1.417,2.479,2.873,4.92,4.33,7.354L-178.529,524.244z M709.868,505.152
				l-103.644-56.555c1.36-2.498,2.698-5.016,4.017-7.537l104.843,54.301C713.393,498.618,711.642,501.904,709.868,505.152z
				 M-189.549,505.075c-1.771-3.242-3.503-6.495-5.195-9.781l104.864-54.271c1.299,2.521,2.637,5.02,3.994,7.498L-189.549,505.075z
				 M-199.722,485.417c-1.633-3.306-3.228-6.653-4.782-10.016l107.126-49.629c1.181,2.559,2.401,5.115,3.66,7.655L-199.722,485.417z
				 M720.104,485.397l-106.007-51.988c1.261-2.561,2.479-5.139,3.682-7.714l107.106,49.687
				C723.327,478.747,721.738,482.075,720.104,485.397z M-209.03,465.349c-1.476-3.367-2.913-6.771-4.33-10.183l109.153-44.977
				c1.083,2.617,2.185,5.234,3.327,7.813L-209.03,465.349z M729.452,465.228l-108.171-47.325c1.136-2.617,2.258-5.234,3.338-7.871
				l109.174,44.944C732.403,458.417,730.945,461.824,729.452,465.228z M-217.472,444.864c-1.338-3.444-2.638-6.93-3.896-10.412
				l111.023-40.163c0.964,2.679,1.968,5.335,2.991,7.972L-217.472,444.864z M737.929,444.643l-110.136-42.56
				c1.022-2.655,2.026-5.314,2.99-7.99l111.048,40.125C740.564,437.698,739.271,441.182,737.929,444.643z M-225.029,423.981
				c-1.181-3.502-2.321-7.003-3.423-10.527l112.656-35.34c0.846,2.714,1.731,5.431,2.637,8.125L-225.029,423.981z M745.51,423.685
				l-111.892-37.693c0.907-2.697,1.791-5.411,2.637-8.129l112.698,35.219C747.829,416.646,746.688,420.186,745.51,423.685z
				 M-231.68,402.791c-1.023-3.55-2.007-7.103-2.971-10.666l114.093-30.381c0.727,2.755,1.495,5.507,2.282,8.243L-231.68,402.791z
				 M752.139,402.436l-113.443-32.727c0.788-2.732,1.557-5.469,2.283-8.225l114.112,30.285
				C754.144,395.335,753.159,398.892,752.139,402.436z M-237.367,381.341c-0.866-3.582-1.711-7.183-2.499-10.804l115.312-25.381
				c0.61,2.8,1.26,5.574,1.929,8.322L-237.367,381.341z M757.827,381.007L643.08,353.222c0.675-2.756,1.299-5.533,1.916-8.308
				l115.325,25.287C759.537,373.802,758.69,377.405,757.827,381.007z M-242.148,359.657c-0.709-3.627-1.397-7.261-2.027-10.904
				l116.297-20.327c0.492,2.817,1.004,5.611,1.555,8.403L-242.148,359.657z M762.587,359.32l-115.865-22.762
				c0.554-2.775,1.065-5.569,1.557-8.387l116.31,20.226C763.965,352.062,763.297,355.7,762.587,359.32z M-245.965,337.796
				c-0.551-3.644-1.062-7.303-1.555-10.961l117.084-15.27c0.374,2.832,0.767,5.665,1.2,8.482L-245.965,337.796z M766.385,337.438
				L649.66,319.751c0.435-2.816,0.826-5.63,1.18-8.463l117.084,15.17C767.445,330.14,766.935,333.797,766.385,337.438z
				 M-248.819,315.793c-0.394-3.659-0.748-7.339-1.063-11.024l117.634-10.174c0.236,2.855,0.532,5.694,0.828,8.521L-248.819,315.793
				z M769.219,315.458L651.82,302.825c0.296-2.814,0.572-5.646,0.826-8.48l117.637,10.074
				C769.985,308.122,769.634,311.8,769.219,315.458z M-250.728,293.736c-0.235-3.683-0.433-7.36-0.59-11.062l117.95-5.121
				c0.118,2.855,0.276,5.707,0.453,8.546L-250.728,293.736z M771.127,293.401l-117.833-7.617c0.177-2.829,0.335-5.665,0.454-8.494
				l117.961,5.016C771.558,286.022,771.361,289.72,771.127,293.401z M-251.692,271.637c-0.079-3.697-0.118-7.379-0.118-11.078
				l118.067-0.079c0,2.852,0.04,5.707,0.098,8.538L-251.692,271.637z M772.074,271.264l-118.048-2.54
				c0.058-2.829,0.096-5.687,0.096-8.535v-0.708h118.067v0.708C772.188,263.885,772.151,267.582,772.074,271.264z M-133.664,251.919
				l-118.048-2.42c0.079-3.699,0.197-7.398,0.354-11.078l117.97,4.978C-133.506,246.213-133.605,249.066-133.664,251.919z
				 M654.007,251.014c-0.062-2.854-0.157-5.706-0.296-8.54l117.948-5.195c0.158,3.66,0.29,7.34,0.369,11.02L654.007,251.014z
				 M-132.936,234.839l-117.832-7.478c0.236-3.68,0.512-7.36,0.827-11.039l117.655,9.977
				C-132.542,229.132-132.759,231.986-132.936,234.839z M653.258,233.973c-0.202-2.853-0.411-5.707-0.649-8.54l117.614-10.252
				c0.314,3.66,0.592,7.34,0.845,11.02L653.258,233.973z M-131.499,217.817l-117.399-12.535c0.394-3.679,0.827-7.359,1.299-11.019
				l117.103,15.073C-130.87,212.15-131.185,214.984-131.499,217.817z M651.781,216.933c-0.314-2.834-0.649-5.668-1.025-8.481
				l117.064-15.329c0.473,3.66,0.922,7.32,1.318,11L651.781,216.933z M-129.315,200.875l-116.75-17.592
				c0.552-3.68,1.142-7.321,1.771-10.961l116.336,20.151C-128.449,195.267-128.902,198.061-129.315,200.875z M649.555,200.009
				c-0.431-2.814-0.879-5.627-1.37-8.422l116.296-20.405c0.63,3.64,1.241,7.28,1.791,10.96L649.555,200.009z M-126.403,184.07
				l-115.883-22.649c0.709-3.641,1.457-7.262,2.243-10.882l115.353,25.168C-125.281,178.501-125.871,181.276-126.403,184.07z
				 M646.603,183.224c-0.544-2.794-1.132-5.588-1.748-8.363l115.292-25.443c0.788,3.601,1.553,7.222,2.264,10.842L646.603,183.224z
				 M-122.762,167.402l-114.781-27.666c0.866-3.602,1.771-7.203,2.715-10.784l114.132,30.205
				C-121.404,161.893-122.112,164.648-122.762,167.402z M642.927,166.557c-0.675-2.755-1.376-5.511-2.106-8.245l114.074-30.461
				c0.945,3.581,1.868,7.162,2.756,10.764L642.927,166.557z M-118.413,150.933l-113.463-32.665
				c1.023-3.562,2.086-7.124,3.188-10.666l112.715,35.184C-116.819,145.501-117.626,148.197-118.413,150.933z M638.555,150.106
				c-0.807-2.735-1.604-5.471-2.479-8.186l112.637-35.381c1.104,3.522,2.164,7.044,3.209,10.606L638.555,150.106z M-113.336,134.639
				l-111.909-37.604c1.181-3.522,2.401-7.044,3.66-10.528l111.062,40.064C-111.487,129.248-112.431,131.924-113.336,134.639z
				 M633.422,133.812c-0.903-2.696-1.849-5.372-2.818-8.048l90.398-32.803l20.585-7.479c1.257,3.483,2.479,6.966,3.679,10.489
				L633.422,133.812z M-107.532,118.523l-110.176-42.445c1.337-3.464,2.715-6.927,4.132-10.37l109.213,44.885
				C-105.446,113.229-106.509,115.866-107.532,118.523z M627.619,117.794c-1.026-2.656-2.092-5.293-3.171-7.91l109.116-45.082
				c1.414,3.423,2.794,6.867,4.132,10.311L627.619,117.794z M-101.038,102.741l-108.189-47.246c1.495-3.404,3.01-6.789,4.565-10.154
				l107.126,49.628C-98.735,97.527-99.896,100.124-101.038,102.741z M621.123,102.092c-1.141-2.597-2.327-5.194-3.501-7.772
				L724.69,44.554c1.552,3.325,3.066,6.69,4.542,10.055L621.123,102.092z M-93.855,87.215L-199.9,35.305
				c1.633-3.326,3.306-6.651,4.998-9.937L-90.018,79.58C-91.317,82.1-92.596,84.638-93.855,87.215z M613.938,86.646
				c-1.257-2.539-2.537-5.077-3.836-7.597l104.804-54.351c1.691,3.267,3.373,6.553,4.978,9.881L613.938,86.646z M-86.004,72.024
				l-103.663-56.495c1.771-3.267,3.581-6.495,5.431-9.702l102.404,58.759C-83.249,67.045-84.646,69.525-86.004,72.024z
				 M606.111,71.552c-1.36-2.5-2.756-4.959-4.154-7.419L704.301,5.277c1.83,3.187,3.649,6.415,5.412,9.662L606.111,71.552z
				 M-77.503,57.206L-178.628-3.735c1.909-3.168,3.857-6.317,5.845-9.446l99.787,63.127C-74.532,52.326-76.027,54.767-77.503,57.206
				z M597.646,56.813c-1.477-2.44-2.971-4.841-4.479-7.242l99.708-63.245c1.968,3.109,3.906,6.258,5.822,9.406L597.646,56.813z
				 M-68.353,42.744l-98.39-65.252c2.046-3.089,4.132-6.14,6.237-9.189l96.954,67.357C-65.185,38.021-66.779,40.363-68.353,42.744z
				 M588.517,42.409c-1.572-2.361-3.167-4.723-4.801-7.044l96.876-67.476c2.105,3.03,4.189,6.08,6.237,9.15L588.517,42.409z
				 M-58.612,28.713l-95.478-69.463c2.184-2.991,4.388-5.962,6.631-8.914l93.943,71.509C-55.228,24.128-56.94,26.411-58.612,28.713z
				 M578.775,28.438c-1.672-2.302-3.367-4.585-5.096-6.829l93.881-71.608c2.244,2.933,4.447,5.884,6.614,8.875L578.775,28.438z
				 M-48.262,15.116l-92.387-73.518c2.302-2.892,4.624-5.765,7.004-8.599L-42.85,8.484C-44.681,10.668-46.471,12.873-48.262,15.116z
				 M568.428,14.84c-1.772-2.224-3.567-4.428-5.373-6.592l90.72-75.563c2.364,2.833,4.704,5.707,7.007,8.6L568.428,14.84z
				 M-37.34,1.991l-89.122-77.453c2.42-2.794,4.88-5.549,7.359-8.284l87.448,79.322C-33.582-2.299-35.471-0.174-37.34,1.991z
				 M557.483,1.734c-1.862-2.145-3.753-4.27-5.669-6.375l87.39-79.4c2.479,2.735,4.938,5.509,7.38,8.284L557.483,1.734z
				 M-25.848-10.683l-85.717-81.19c2.539-2.676,5.116-5.333,7.714-7.97l83.946,83.022C-21.913-14.795-23.9-12.748-25.848-10.683z
				 M546.013-10.898c-1.968-2.066-3.936-4.112-5.945-6.14l83.885-83.08c2.598,2.618,5.177,5.273,7.714,7.95L546.013-10.898z
				 M-13.845-22.824L-96-107.615c2.656-2.578,5.352-5.117,8.067-7.635l80.266,86.583C-9.732-26.759-11.798-24.792-13.845-22.824z
				 M534.008-23.021c-2.048-1.987-4.112-3.936-6.218-5.883l80.229-86.622c2.717,2.499,5.393,5.038,8.048,7.616L534.008-23.021z
				 M-1.311-34.433l-78.436-88.256c2.774-2.459,5.549-4.88,8.383-7.28L5.125-40.021C2.94-38.192,0.796-36.322-1.311-34.433z
				 M521.452-34.649c-2.126-1.889-4.271-3.759-6.434-5.589l76.409-90.006c2.813,2.401,5.607,4.821,8.383,7.28L521.452-34.649z
				 M11.658-45.472l-74.521-91.581c2.854-2.322,5.727-4.625,8.639-6.887l72.591,93.115C16.105-49.054,13.881-47.283,11.658-45.472z
				 M508.446-45.688c-2.202-1.791-4.447-3.582-6.686-5.333l72.474-93.194c2.909,2.263,5.808,4.566,8.679,6.907L508.446-45.688z
				 M25.117-55.961l-70.506-94.709c2.952-2.204,5.943-4.369,8.954-6.513l68.459,96.185C29.703-59.346,27.4-57.673,25.117-55.961z
				 M494.968-56.177c-2.283-1.693-4.585-3.385-6.93-5.019l68.389-96.264c3.003,2.146,5.999,4.309,8.97,6.513L494.968-56.177z
				 M39.029-65.858L-27.363-163.5c3.049-2.066,6.119-4.112,9.209-6.121l64.288,99.039C43.753-69.027,41.372-67.452,39.029-65.858z
				 M481.018-66.095c-2.342-1.594-4.721-3.169-7.105-4.703l64.13-99.137c3.109,2.007,6.218,4.073,9.295,6.139L481.018-66.095z
				 M53.316-75.126L-8.788-175.543c3.128-1.928,6.277-3.837,9.465-5.707L60.617-79.535C58.176-78.099,55.736-76.623,53.316-75.126z
				 M466.688-75.363c-2.437-1.496-4.878-2.972-7.337-4.428l59.8-101.814c3.19,1.87,6.355,3.778,9.505,5.707L466.688-75.363z
				 M67.976-83.766L10.3-186.779c3.208-1.811,6.454-3.562,9.701-5.293L75.454-87.839C72.955-86.52,70.456-85.163,67.976-83.766z
				 M451.912-84.041c-2.48-1.378-4.977-2.736-7.477-4.073l55.296-104.313c3.286,1.731,6.553,3.522,9.799,5.333L451.912-84.041z
				 M83.01-91.775L29.821-197.189c3.286-1.653,6.611-3.286,9.937-4.88L90.645-95.533C88.087-94.293,85.548-93.034,83.01-91.775z
				 M436.819-92.031c-2.536-1.279-5.098-2.518-7.653-3.738l50.689-106.634c3.363,1.594,6.691,3.227,10.018,4.899L436.819-92.031z
				 M98.359-99.095L49.793-206.713c3.346-1.515,6.73-2.991,10.115-4.428l46.243,108.642
				C103.534-101.397,100.936-100.256,98.359-99.095z M421.391-99.37c-2.597-1.161-5.214-2.302-7.831-3.425l46.03-108.72
				c3.424,1.457,6.831,2.933,10.196,4.448L421.391-99.37z M113.963-105.747L70.14-215.391c3.424-1.378,6.868-2.715,10.331-4.014
				l41.442,110.551C119.256-107.812,116.62-106.789,113.963-105.747z M405.648-106.042c-2.66-1.062-5.31-2.086-8.008-3.089
				l41.245-110.629c3.481,1.298,6.925,2.617,10.369,3.994L405.648-106.042z M129.961-111.728L90.94-223.164
				c3.483-1.22,7.005-2.4,10.527-3.561l36.562,112.262C135.314-113.577,132.618-112.672,129.961-111.728z M389.571-112.022
				c-2.673-0.925-5.371-1.831-8.071-2.716l36.305-112.341c3.566,1.141,7.091,2.341,10.611,3.562L389.571-112.022z M146.157-117.002
				l-34.102-113.029c3.522-1.063,7.064-2.086,10.606-3.07l31.721,113.718C151.627-118.635,148.872-117.828,146.157-117.002z
				 M373.358-117.277c-2.716-0.806-5.433-1.594-8.167-2.342l31.387-113.816c3.578,0.984,7.141,2.007,10.685,3.07L373.358-117.277z
				 M162.587-121.587l-29.183-114.406c3.582-0.906,7.183-1.791,10.784-2.618l26.664,115.017
				C168.098-122.944,165.343-122.276,162.587-121.587z M356.926-121.803c-2.75-0.689-5.511-1.358-8.282-1.988l26.385-115.076
				c3.624,0.827,7.202,1.693,10.804,2.598L356.926-121.803z M179.176-125.424L155.07-241.012c3.621-0.748,7.242-1.476,10.882-2.145
				l21.606,116.079C184.745-126.546,181.951-125.994,179.176-125.424z M340.3-125.62c-2.773-0.571-5.548-1.123-8.342-1.634
				l21.328-116.119c3.659,0.668,7.279,1.377,10.919,2.125L340.3-125.62z M195.961-128.553l-19.107-116.513
				c3.641-0.59,7.301-1.161,10.98-1.673l16.55,116.907C201.569-129.438,198.756-129.005,195.961-128.553z M323.514-128.69
				c-2.794-0.452-5.59-0.866-8.384-1.259l16.274-116.945c3.682,0.511,7.36,1.062,11.021,1.653L323.514-128.69z M212.865-130.934
				l-14.05-117.241c3.66-0.433,7.34-0.846,11.039-1.2l11.493,117.497C218.512-131.583,215.678-131.287,212.865-130.934z
				 M306.63-131.052c-2.815-0.334-5.646-0.629-8.48-0.905l11.215-117.536c3.701,0.354,7.356,0.748,11.034,1.181L306.63-131.052z
				 M229.847-132.606l-8.973-117.732c3.68-0.275,7.379-0.534,11.099-0.728l6.375,117.891
				C235.514-133,232.68-132.823,229.847-132.606z M289.65-132.665c-2.835-0.216-5.69-0.394-8.521-0.531l6.157-117.91
				c3.701,0.197,7.38,0.433,11.062,0.689L289.65-132.665z M246.907-133.531l-3.896-118.009c3.68-0.118,7.36-0.197,11.059-0.256
				l1.378,118.067C252.595-133.688,249.761-133.63,246.907-133.531z M272.549-133.57c-2.836-0.079-5.669-0.138-8.521-0.177
				l1.105-118.067c3.701,0.039,7.398,0.117,11.1,0.216L272.549-133.57z"/>
		</g>
	</g>
</g>
</svg>
