<?xml version="1.0" encoding="utf-8"?>
<!-- Generator: Adobe Illustrator 17.0.0, SVG Export Plug-In . SVG Version: 6.00 Build 0)  -->
<!DOCTYPE svg PUBLIC "-//W3C//DTD SVG 1.1//EN" "http://www.w3.org/Graphics/SVG/1.1/DTD/svg11.dtd">
<svg version="1.1" xmlns="http://www.w3.org/2000/svg" xmlns:xlink="http://www.w3.org/1999/xlink" x="0px" y="0px"
	 width="373.34px" height="372.92px" viewBox="0 0 373.34 372.92" enable-background="new 0 0 373.34 372.92" xml:space="preserve">
<g id="Layer_2">
</g>
<g id="Layer_1">
</g>
<g id="Layer_3">
</g>
<g id="Layer_4">
	<g>
		<g>
			<path fill="#00FFFF" d="M174.03,372.92c-8.47-0.57-16.97-1.72-25.24-3.42l1.01-4.9c8.05,1.66,16.31,2.78,24.56,3.33
				L174.03,372.92z M199.5,372.91l-0.34-4.99c8.24-0.56,16.5-1.69,24.56-3.36l1.01,4.9C216.46,371.17,207.97,372.33,199.5,372.91z
				 M124.24,362.65c-7.98-2.83-15.85-6.25-23.38-10.15l2.3-4.44c7.33,3.8,14.98,7.12,22.75,9.88L124.24,362.65z M249.26,362.59
				l-1.68-4.71c7.76-2.76,15.41-6.09,22.73-9.89l2.31,4.44C265.1,356.33,257.24,359.75,249.26,362.59z M79.09,339.24
				c-6.91-4.88-13.56-10.29-19.76-16.08l3.41-3.66c6.03,5.63,12.5,10.9,19.23,15.65L79.09,339.24z M294.36,339.17l-2.89-4.08
				c6.72-4.76,13.19-10.02,19.22-15.66l3.41,3.65C307.91,328.87,301.27,334.28,294.36,339.17z M41.93,304.57
				c-5.36-6.57-10.31-13.56-14.71-20.78l4.27-2.61c4.29,7.03,9.11,13.84,14.32,20.23L41.93,304.57z M331.49,304.47l-3.88-3.16
				c5.21-6.4,10.03-13.21,14.31-20.25l4.27,2.6C341.79,290.89,336.85,297.89,331.49,304.47z M15.47,261.2
				c-3.39-7.77-6.26-15.84-8.55-24l4.81-1.35c2.23,7.93,5.02,15.79,8.32,23.35L15.47,261.2z M357.94,261.04l-4.58-1.99
				c3.29-7.57,6.08-15.43,8.3-23.37l4.82,1.35C364.19,245.19,361.32,253.27,357.94,261.04z M1.74,212.26
				c-1.15-8.36-1.73-16.91-1.74-25.41l5-0.01c0.01,8.28,0.58,16.6,1.69,24.73L1.74,212.26z M371.63,212.08l-4.95-0.67
				c1.11-8.14,1.67-16.46,1.67-24.73l0-0.37h5l0,0.36C373.34,195.17,372.77,203.72,371.63,212.08z M6.65,162.12l-4.96-0.67
				c1.14-8.41,2.86-16.8,5.13-24.95l4.82,1.34C9.43,145.77,7.75,153.93,6.65,162.12z M366.63,161.58
				c-1.13-8.18-2.83-16.34-5.07-24.26l4.81-1.36c2.29,8.14,4.04,16.53,5.21,24.93L366.63,161.58z M19.92,114.46l-4.59-1.99
				c3.37-7.77,7.31-15.38,11.72-22.63l4.27,2.6C27.03,99.49,23.2,106.9,19.92,114.46z M353.22,113.97
				c-3.3-7.54-7.15-14.93-11.45-21.97l4.27-2.61c4.42,7.23,8.38,14.82,11.77,22.57L353.22,113.97z M45.62,72.17l-3.88-3.15
				c5.34-6.57,11.18-12.84,17.37-18.63l3.42,3.65C56.5,59.67,50.81,65.78,45.62,72.17z M327.42,71.79
				c-5.21-6.38-10.92-12.47-16.95-18.09l3.41-3.66c6.2,5.77,12.06,12.03,17.42,18.58L327.42,71.79z M81.72,38.36l-2.89-4.08
				c6.92-4.9,14.23-9.37,21.73-13.28l2.31,4.44C95.57,29.24,88.46,33.59,81.72,38.36z M291.22,38.07
				c-6.75-4.76-13.88-9.09-21.2-12.87l2.3-4.44c7.52,3.89,14.85,8.34,21.78,13.23L291.22,38.07z M125.58,15.52l-1.68-4.71
				c7.97-2.85,16.22-5.17,24.52-6.89l1.02,4.89C141.37,10.5,133.34,12.75,125.58,15.52z M247.26,15.35
				c-7.78-2.75-15.82-4.99-23.9-6.64l1-4.9c8.31,1.7,16.57,4,24.56,6.83L247.26,15.35z M174,5.43l-0.34-4.99
				c8.42-0.58,17.05-0.59,25.47-0.04L198.8,5.4C190.6,4.86,182.2,4.87,174,5.43z"/>
		</g>
	</g>
</g>
</svg>
