<?xml version="1.0" encoding="utf-8"?>
<!-- Generator: Adobe Illustrator 17.0.0, SVG Export Plug-In . SVG Version: 6.00 Build 0)  -->
<!DOCTYPE svg PUBLIC "-//W3C//DTD SVG 1.1//EN" "http://www.w3.org/Graphics/SVG/1.1/DTD/svg11.dtd">
<svg version="1.1" xmlns="http://www.w3.org/2000/svg" xmlns:xlink="http://www.w3.org/1999/xlink" x="0px" y="0px"
	 width="351.69px" height="351.69px" viewBox="0 0 351.69 351.69" enable-background="new 0 0 351.69 351.69" xml:space="preserve">
<g id="Layer_2">
</g>
<g id="Layer_1">
	<radialGradient id="SVGID_1_" cx="805.5237" cy="153.8065" r="676.2568" gradientUnits="userSpaceOnUse">
		<stop  offset="0" style="stop-color:#000000;stop-opacity:0"/>
		<stop  offset="1" style="stop-color:#000000"/>
	</radialGradient>
	<rect x="-4.98" y="-341.56" display="none" fill="url(#SVGID_1_)" width="1621" height="1080"/>
	<path fill="#00FFFF" fill-opacity="0.1" stroke="#00FFFF" stroke-width="0.5" stroke-miterlimit="10" stroke-opacity="0.5" d="
		M175.85,0.25c-96.98,0-175.6,78.62-175.6,175.6c0,96.98,78.62,175.6,175.6,175.6c96.98,0,175.6-78.62,175.6-175.6
		C351.44,78.87,272.83,0.25,175.85,0.25z M175.85,295.95c-66.33,0-120.1-53.77-120.1-120.1c0-66.33,53.77-120.1,120.1-120.1
		c66.33,0,120.1,53.77,120.1,120.1C295.95,242.18,242.18,295.95,175.85,295.95z"/>
</g>
<g id="Layer_3">
</g>
<g id="Layer_4">
</g>
</svg>
