<?xml version="1.0" encoding="utf-8"?>
<!-- Generator: Adobe Illustrator 15.1.0, SVG Export Plug-In . SVG Version: 6.00 Build 0)  -->
<!DOCTYPE svg PUBLIC "-//W3C//DTD SVG 1.1//EN" "http://www.w3.org/Graphics/SVG/1.1/DTD/svg11.dtd">
<svg version="1.1" id="Layer_1" xmlns="http://www.w3.org/2000/svg" xmlns:xlink="http://www.w3.org/1999/xlink" x="0px" y="0px"
	 width="1024px" height="1024px" viewBox="-228.805 -228.805 1024 1024" enable-background="new -228.805 -228.805 1024 1024"
	 xml:space="preserve">
<g id="Layer_2">
</g>
<g id="Layer_1_1_">
</g>
<g id="Layer_3">
</g>
<g id="Layer_4">
	<g>
		<path fill="#FFFFFF" d="M283.186,793.195c-136.22,0-264.297-53.055-360.626-149.381
			c-96.312-96.312-149.365-224.394-149.365-360.628c0-136.219,53.054-264.297,149.383-360.626
			c96.311-96.312,224.388-149.365,360.608-149.365c136.217,0,264.299,53.054,360.628,149.384
			c96.326,96.328,149.381,224.407,149.381,360.626c0,136.216-53.055,264.298-149.381,360.627
			C547.502,740.14,419.42,793.195,283.186,793.195z M283.186-190.788c-126.602,0-245.64,49.308-335.162,138.83
			c-89.521,89.522-138.812,208.542-138.812,335.144s49.308,245.64,138.83,335.162c89.522,89.52,208.56,138.829,335.162,138.829
			c126.601,0,245.639-49.31,335.161-138.829c89.521-89.522,138.83-208.561,138.83-335.162c0-126.6-49.327-245.622-138.847-335.144
			C528.826-141.479,409.805-190.788,283.186-190.788z"/>
	</g>
</g>
</svg>
