<?xml version="1.0" encoding="utf-8"?>
<!-- Generator: Adobe Illustrator 17.0.0, SVG Export Plug-In . SVG Version: 6.00 Build 0)  -->
<!DOCTYPE svg PUBLIC "-//W3C//DTD SVG 1.1//EN" "http://www.w3.org/Graphics/SVG/1.1/DTD/svg11.dtd">
<svg version="1.1" xmlns="http://www.w3.org/2000/svg" xmlns:xlink="http://www.w3.org/1999/xlink" x="0px" y="0px"
	 width="627.64px" height="627.64px" viewBox="0 0 627.64 627.64" enable-background="new 0 0 627.64 627.64" xml:space="preserve">
<g id="Layer_2">
</g>
<g id="Layer_1">
</g>
<g id="Layer_3">
</g>
<g id="Layer_4">
	<g>
		<path fill="#00FFFF" d="M313.82,627.64c-83.82,0-162.63-32.64-221.9-91.92S0,397.64,0,313.82s32.64-162.63,91.92-221.9
			S229.99,0,313.82,0c83.82,0,162.63,32.64,221.9,91.92s91.92,138.08,91.92,221.9s-32.64,162.63-91.92,221.9
			S397.64,627.64,313.82,627.64z M313.82,2C230.53,2,152.22,34.43,93.33,93.33C34.44,152.22,2,230.53,2,313.82
			s32.44,161.59,91.33,220.49c58.9,58.89,137.2,91.33,220.49,91.33c83.29,0,161.59-32.43,220.49-91.33
			c58.9-58.9,91.33-137.2,91.33-220.49S593.2,152.22,534.31,93.33C475.41,34.43,397.11,2,313.82,2z"/>
	</g>
</g>
</svg>
